:SAMPLES-PER-SECOND 30
:FULLY-SPECIFIED
:DEGREES
980
root  -20.1718 29.3416 0.435856 -46.5184 -82.2908 61.3486
RightUpLeg  -75.0752 -25.0826 0.113131
RightLeg  81.9699 0.682948 3.73469
RightFoot  -21.5279 -0.719536 -6.43376
RightToes  -4.65663e-010 0 -3.6325e-017
Spine  69.8198 -7.33776 6.17903
Spine1  17.9057 -5.28902 2.37099
HEad  -33.0016 -8.82419 -1.81665
LeftShoulder1  0.665033 1.36098 -24.8002
LeftArm  -14.3228 -12.4177 -45.5054
LeftForeArm  50.2344 -66.703 -20.8994
LeftHand  -0.0771469 2.98344 2.48526
RightShoulder  0.015858 -3.42488 24.2337
RightArm  2.8181 11.751 48.3123
RightForeArm  7.8402 47.8377 11.8365
RightHand  -0.620551 10.9662 -4.81291
LeftUpLeg  -73.4474 4.81066 -8.98976
LeftLeg  75.4061 -2.04485 -7.87617
LeftFoot  -14.3272 0.313972 8.70441
LeftToes  8.74931e-010 -1.05764e-010 1.2659e-011
981
root  -20.549 29.818 0.509335 -33.0793 -82.1875 51.0966
RightUpLeg  -76.4692 -25.8484 2.07251
RightLeg  79.8319 0.81173 3.63056
RightFoot  -21.5761 -0.676639 -5.92006
RightToes  -4.65663e-010 0 -3.6325e-017
Spine  64.9144 -8.16791 7.99923
Spine1  17.1333 -5.59721 2.1889
HEad  -35.5144 -8.60932 -1.32229
LeftShoulder1  0.673325 1.38387 -25.5524
LeftArm  -13.3325 -12.9943 -45.4628
LeftForeArm  42.4363 -63.6522 -18.5788
LeftHand  -0.156059 2.66514 6.10006
RightShoulder  -0.044475 -3.62136 24.5996
RightArm  2.0337 12.7705 48.5947
RightForeArm  8.0892 46.4555 11.2333
RightHand  -0.56684 10.9713 -4.41845
LeftUpLeg  -74.8888 2.29423 -7.51111
LeftLeg  73.3959 -2.08185 -6.90223
LeftFoot  -14.0205 0.266056 7.76227
LeftToes  8.74931e-010 -1.05764e-010 1.2659e-011
982
root  -20.7753 30.6432 0.518777 -37.4432 -82.4558 54.1469
RightUpLeg  -72.0711 -25.4774 0.906899
RightLeg  76.5151 1.05829 3.82847
RightFoot  -21.1136 -0.622248 -5.60017
RightToes  -4.65663e-010 0 -3.6325e-017
Spine  64.2669 -7.57102 7.82939
Spine1  16.0329 -5.34311 2.73261
HEad  -37.2936 -9.22584 -2.22391
LeftShoulder1  0.737067 1.19972 -25.8114
LeftArm  -12.6087 -13.0896 -46.4396
LeftForeArm  39.1123 -60.4966 -16.275
LeftHand  -0.0628383 4.06914 4.04456
RightShoulder  -0.0590168 -3.66516 25.046
RightArm  1.97593 13.3112 47.7279
RightForeArm  7.82255 44.4657 10.4716
RightHand  -0.435774 10.7111 -3.54952
LeftUpLeg  -70.7255 2.20055 -6.95456
LeftLeg  70.1946 -2.24351 -6.09213
LeftFoot  -13.7536 0.232154 7.07539
LeftToes  8.74931e-010 -1.05764e-010 1.2659e-011
983
root  -21.002 31.4122 0.461168 -48.0919 -82.3573 64.6927
RightUpLeg  -69.3074 -24.3223 -0.683228
RightLeg  73.2939 1.26165 3.72223
RightFoot  -20.4087 -0.539269 -5.05907
RightToes  -4.65663e-010 0 -3.6325e-017
Spine  61.2169 -6.43004 6.73667
Spine1  15.7043 -4.92166 2.25071
HEad  -38.8468 -9.71187 -2.39454
LeftShoulder1  0.873095 0.771391 -25.7646
LeftArm  -12.4334 -13.2336 -46.6248
LeftForeArm  37.0543 -56.7456 -13.9174
LeftHand  -0.10548 3.30644 5.09493
RightShoulder  -0.0654394 -3.68179 25.6318
RightArm  2.59314 13.7236 47.4867
RightForeArm  7.04793 41.5955 9.49
RightHand  -0.475366 11.0857 -3.7692
LeftUpLeg  -67.6898 2.18732 -7.31633
LeftLeg  66.6213 -2.31853 -5.18196
LeftFoot  -13.2355 0.183537 6.27377
LeftToes  8.74931e-010 -1.05764e-010 1.2659e-011
984
root  -21.2372 32.2698 0.481789 -53.3665 -82.9158 68.2824
RightUpLeg  -64.3973 -23.7442 -1.486
RightLeg  69.4661 1.55635 3.82777
RightFoot  -19.6577 -0.478821 -4.75407
RightToes  -4.65663e-010 0 -3.6325e-017
Spine  58.7493 -6.07498 6.64764
Spine1  15.3633 -4.58335 1.90228
HEad  -40.7222 -9.31864 -2.76754
LeftShoulder1  0.871605 0.864575 -26.8718
LeftArm  -11.1802 -13.3329 -45.7213
LeftForeArm  34.9055 -53.1238 -12.1257
LeftHand  -0.108718 3.59312 6.05073
RightShoulder  -0.0374113 -3.59461 25.3172
RightArm  3.47432 14.015 47.9729
RightForeArm  8.00128 38.5369 8.43519
RightHand  -0.524569 9.57788 -4.45025
LeftUpLeg  -63.031 2.11937 -6.45185
LeftLeg  63.0491 -2.28169 -4.25352
LeftFoot  -12.7483 0.146097 5.66904
LeftToes  8.74931e-010 -1.05764e-010 1.2659e-011
985
root  -21.5011 33.134 0.364813 -69.8663 -84.5674 82.2749
RightUpLeg  -58.3816 -21.0035 -1.85483
RightLeg  65.2591 1.64892 3.27251
RightFoot  -18.7757 -0.410392 -4.36001
RightToes  -4.65663e-010 0 -3.6325e-017
Spine  57.3534 -4.69266 6.11817
Spine1  14.047 -3.18653 1.58358
HEad  -42.2642 -8.66331 -3.16846
LeftShoulder1  0.89405 0.85823 -27.6608
LeftArm  -9.57286 -12.7741 -44.6757
LeftForeArm  33.1267 -49.6322 -10.6656
LeftHand  -0.0719071 4.24178 5.48374
RightShoulder  -0.0806996 -3.72908 25.8637
RightArm  4.24171 13.957 47.8947
RightForeArm  9.04142 35.5613 7.49656
RightHand  -0.538713 9.26392 -4.65067
LeftUpLeg  -57.5938 4.08019 -4.85788
LeftLeg  59.789 -2.35523 -3.81096
LeftFoot  -12.578 0.130699 5.08943
LeftToes  8.74931e-010 -1.05764e-010 1.2659e-011
986
root  -21.813 34.0483 0.188163 -97.3827 -84.9638 107.518
RightUpLeg  -52.5052 -18.0566 -2.48339
RightLeg  60.6343 1.69083 2.74247
RightFoot  -17.7754 -0.347097 -4.03891
RightToes  -4.65663e-010 0 -3.6325e-017
Spine  55.1523 -3.00749 4.88167
Spine1  13.1121 -1.62385 1.10128
HEad  -44.0476 -8.15359 -4.12876
LeftShoulder1  0.9085 0.85517 -28.1762
LeftArm  -8.22365 -11.9278 -44.1888
LeftForeArm  32.4127 -46.6168 -9.51453
LeftHand  -0.0795541 3.95825 4.98834
RightShoulder  0.00685751 -3.4536 26.2596
RightArm  3.84233 13.4569 47.3762
RightForeArm  8.92058 32.6347 6.71274
RightHand  -0.481496 9.21197 -4.20405
LeftUpLeg  -51.8256 6.3732 -3.82724
LeftLeg  55.7666 -2.58374 -3.57875
LeftFoot  -12.1356 0.104592 4.56382
LeftToes  8.74931e-010 -1.05764e-010 1.2659e-011
987
root  -22.2199 34.902 0.00794774 -126.367 -84.6394 134.787
RightUpLeg  -47.1787 -14.7922 -2.34214
RightLeg  55.9378 1.51951 1.98935
RightFoot  -16.7607 -0.293703 -3.80828
RightToes  -4.65663e-010 0 -3.6325e-017
Spine  51.6728 -1.7271 4.37057
Spine1  13.1754 -0.0273156 0.0184597
HEad  -46.1985 -7.26317 -4.35541
LeftShoulder1  0.819514 1.1008 -27.9882
LeftArm  -7.34307 -11.1964 -44.2694
LeftForeArm  32.5617 -44.289 -8.67956
LeftHand  -0.0665655 4.10866 4.33406
RightShoulder  -0.108175 -3.80388 26.9118
RightArm  4.00877 13.9191 47.6162
RightForeArm  8.93714 30.0382 6.05561
RightHand  -0.387313 8.06622 -3.71067
LeftUpLeg  -46.5925 8.91095 -2.31991
LeftLeg  51.9567 -2.90129 -3.50313
LeftFoot  -11.8834 0.089073 3.7305
LeftToes  8.74931e-010 -1.05764e-010 1.2659e-011
988
root  -22.7014 35.7287 -0.160261 -143.529 -83.8519 150.798
RightUpLeg  -42.3254 -12.4937 -2.10168
RightLeg  51.1384 1.39197 1.47215
RightFoot  -15.8958 -0.241731 -3.37797
RightToes  -4.65663e-010 0 -3.6325e-017
Spine  47.8607 -0.649422 4.28878
Spine1  12.114 1.0876 -0.0180941
HEad  -47.5997 -6.73144 -5.0673
LeftShoulder1  0.791678 1.24036 -28.8644
LeftArm  -5.87963 -10.5559 -43.8444
LeftForeArm  31.6284 -41.9577 -7.97217
LeftHand  -0.082207 3.77471 4.58926
RightShoulder  -0.0977137 -3.77086 26.9648
RightArm  3.42688 13.4194 47.3399
RightForeArm  8.48619 28.2406 5.64947
RightHand  -0.415449 8.29994 -3.89403
LeftUpLeg  -41.7783 10.6817 -1.01752
LeftLeg  47.7848 -3.342 -3.51458
LeftFoot  -11.3819 0.0696492 3.19001
LeftToes  8.74931e-010 -1.05764e-010 1.2659e-011
989
root  -23.2409 36.531 -0.277198 -145.441 -83.7426 150.589
RightUpLeg  -36.3258 -12.0897 -2.83048
RightLeg  46.5406 1.42006 1.28357
RightFoot  -15.49 -0.202962 -2.71091
RightToes  -4.65663e-010 0 -3.6325e-017
Spine  44.9735 -0.746005 4.6092
Spine1  11.1568 1.11714 -0.337789
HEad  -48.9038 -6.12545 -5.535
LeftShoulder1  0.742592 1.37642 -28.7923
LeftArm  -4.87144 -9.83026 -44.0783
LeftForeArm  30.4865 -40.3141 -7.5397
LeftHand  -0.0437882 4.72096 3.80736
RightShoulder  -0.19686 -4.05996 27.5104
RightArm  3.39362 13.4528 47.2423
RightForeArm  7.4738 27.1077 5.44132
RightHand  -0.430309 7.92271 -4.10813
LeftUpLeg  -35.7017 10.2587 -0.228659
LeftLeg  43.0164 -3.39099 -2.9926
LeftFoot  -10.6715 0.0492407 2.5716
LeftToes  8.74931e-010 -1.05764e-010 1.2659e-011
990
root  -23.8349 37.2481 -0.412056 -147.67 -83.4794 150.829
RightUpLeg  -30.5409 -11.103 -3.60396
RightLeg  42.0613 1.15333 0.816535
RightFoot  -15.1649 -0.170208 -2.03049
RightToes  -4.65663e-010 0 -3.6325e-017
Spine  42.4617 -0.63922 4.59503
Spine1  9.52673 1.15985 -0.375361
HEad  -49.3418 -5.45193 -6.19521
LeftShoulder1  0.735521 1.4168 -29.1561
LeftArm  -4.06216 -8.66699 -43.9745
LeftForeArm  28.9439 -38.9699 -7.24015
LeftHand  -0.0566109 4.40794 4.12224
RightShoulder  -0.24775 -4.19992 28.0675
RightArm  4.0308 13.4691 46.7814
RightForeArm  6.7504 26.4487 5.329
RightHand  -0.522603 7.96145 -4.90438
LeftUpLeg  -29.8207 9.69736 0.466218
LeftLeg  38.3836 -3.15334 -2.29636
LeftFoot  -9.99154 0.0380017 1.86802
LeftToes  8.74931e-010 -1.05764e-010 1.2659e-011
991
root  -24.4749 37.8334 -0.556194 -149.236 -83.4576 150.603
RightUpLeg  -25.2247 -10.6767 -4.13417
RightLeg  38.0879 1.04777 0.605417
RightFoot  -14.9907 -0.153962 -1.65251
RightToes  -4.65663e-010 0 -3.6325e-017
Spine  39.2037 -0.410732 4.58577
Spine1  8.7935 1.03082 0.398185
HEad  -49.2397 -4.69218 -6.81529
LeftShoulder1  0.621355 1.78405 -30.0292
LeftArm  -2.28115 -8.45804 -43.6815
LeftForeArm  27.9919 -37.7368 -6.9465
LeftHand  -0.0313416 5.15043 3.2664
RightShoulder  -0.254674 -4.23537 27.3409
RightArm  3.80736 13.1101 47.4214
RightForeArm  7.99969 26.5099 5.27623
RightHand  -0.440299 7.13904 -4.43265
LeftUpLeg  -24.4964 8.90584 1.11139
LeftLeg  34.3034 -2.80383 -1.70542
LeftFoot  -9.46162 0.0359133 1.26541
LeftToes  8.74931e-010 -1.05764e-010 1.2659e-011
992
root  -25.165 38.295 -0.698349 -151.374 -83.2702 151.178
RightUpLeg  -20.4894 -9.96656 -4.57642
RightLeg  34.7297 0.807114 0.345467
RightFoot  -14.9145 -0.143277 -1.359
RightToes  -4.65663e-010 0 -3.6325e-017
Spine  35.9967 -0.335703 4.69118
Spine1  7.83633 0.925663 0.667257
HEad  -48.6099 -3.25274 -7.29454
LeftShoulder1  0.494796 2.13758 -30.1061
LeftArm  -1.04625 -7.66971 -43.7659
LeftForeArm  26.8536 -36.9005 -6.7829
LeftHand  -0.049436 4.48868 3.75791
RightShoulder  -0.311707 -4.39696 27.6798
RightArm  5.1758 13.6888 47.444
RightForeArm  7.66964 26.1775 5.21833
RightHand  -0.405821 7.44591 -4.0275
LeftUpLeg  -19.7989 7.84209 1.61484
LeftLeg  31.0037 -1.77131 -0.799126
LeftFoot  -9.01722 0.0412688 0.636267
LeftToes  8.74931e-010 -1.05764e-010 1.2659e-011
993
root  -25.8647 38.6566 -0.8493 -155.786 -83.0762 154.149
RightUpLeg  -16.1059 -8.77508 -4.60362
RightLeg  31.7075 0.177365 -0.132574
RightFoot  -14.8742 -0.137774 -1.21082
RightToes  -4.65663e-010 0 -3.6325e-017
Spine  32.8283 -0.246142 5.25065
Spine1  6.93978 1.0902 0.656975
HEad  -47.3005 -2.0256 -7.28972
LeftShoulder1  0.433238 2.29654 -29.7717
LeftArm  -0.799492 -6.35647 -44.5901
LeftForeArm  26.3642 -36.4764 -6.69686
LeftHand  -0.0356356 5.0776 3.0193
RightShoulder  -0.350013 -4.50451 27.8017
RightArm  5.91538 13.8959 47.7587
RightForeArm  8.09416 26.4044 5.24699
RightHand  -0.383864 6.63843 -4.04319
LeftUpLeg  -15.9839 7.01798 2.36773
LeftLeg  29.1412 -0.924147 -0.213577
LeftFoot  -8.51464 0.0697865 -0.753509
LeftToes  8.74931e-010 -1.05764e-010 1.2659e-011
994
root  -26.5287 38.8926 -1.009 -160.035 -83.286 156.984
RightUpLeg  -12.0657 -7.90857 -4.36972
RightLeg  29.2877 -0.496664 -0.543284
RightFoot  -15.2653 -0.13281 -0.861166
RightToes  -4.65663e-010 0 -3.6325e-017
Spine  29.9152 -0.367917 6.01682
Spine1  6.21056 1.09806 0.654391
HEad  -45.8983 -0.710316 -7.48399
LeftShoulder1  0.288966 2.70284 -30.015
LeftArm  0.0125324 -5.9483 -44.5639
LeftForeArm  24.2104 -35.5063 -6.56449
LeftHand  -0.0295225 5.66326 2.12695
RightShoulder  -0.459097 -4.80602 28.3483
RightArm  7.48627 14.7301 47.9537
RightForeArm  7.70099 26.8091 5.36061
RightHand  -0.372897 6.94713 -3.85211
LeftUpLeg  -13.5762 5.78453 3.26513
LeftLeg  29.5391 -0.140347 0.25386
LeftFoot  -7.7215 0.139292 -2.92506
LeftToes  8.74931e-010 -1.05764e-010 1.2659e-011
